<?xml version="1.0" encoding="UTF-8" standalone="no"?>
<svg
   data-bbox="-2017 853 43 23"
   viewBox="-2017 853 43 43"
   data-type="color"
   version="1.1"
   id="svg6"
   sodipodi:docname="curseforge logo.svg"
   width="43"
   height="43"
   inkscape:version="1.1 (c68e22c387, 2021-05-23)"
   xmlns:inkscape="http://www.inkscape.org/namespaces/inkscape"
   xmlns:sodipodi="http://sodipodi.sourceforge.net/DTD/sodipodi-0.dtd"
   xmlns="http://www.w3.org/2000/svg"
   xmlns:svg="http://www.w3.org/2000/svg">
  <defs
     id="defs10" />
  <sodipodi:namedview
     id="namedview8"
     pagecolor="#505050"
     bordercolor="#eeeeee"
     borderopacity="1"
     inkscape:pageshadow="0"
     inkscape:pageopacity="0"
     inkscape:pagecheckerboard="0"
     showgrid="false"
     inkscape:zoom="16.369565"
     inkscape:cx="13.592297"
     inkscape:cy="14.111554"
     inkscape:window-width="2560"
     inkscape:window-height="1348"
     inkscape:window-x="-12"
     inkscape:window-y="-12"
     inkscape:window-maximized="1"
     inkscape:current-layer="svg6" />
  <g
     id="g4"
     transform="translate(0,10)"
     style="fill:#ffffff">
    <path		
       d="m -2005.7,853 0.7,3 h -12 c 0,0 0.2,0.9 0.3,1 0.3,0.5 0.6,1.1 1,1.5 1.9,2.2 5.2,3.1 7.9,3.6 1.9,0.4 3.8,0.5 5.7,0.6 l 2.2,5.9 h 1.2 l 0.7,1.9 h -1 l -1.7,5.5 h 16.7 l -1.7,-5.5 h -1 l 0.7,-1.9 h 1.2 c 0,0 1,-6.1 4.1,-8.9 3,-2.8 6.7,-3.2 6.7,-3.2 V 853 Z m 16.8,15.1 c -0.8,0.5 -1.7,0.5 -2.3,0.9 -0.4,0.2 -0.6,0.8 -0.6,0.8 -0.4,-0.9 -0.9,-1.2 -1.5,-1.4 -0.6,-0.2 -1.7,-0.1 -3.2,-1.4 -1,-0.9 -1.1,-2.1 -1,-2.7 V 864 c 0,-0.1 0,-0.2 0.1,-0.3 0.2,-0.6 0.7,-1.2 1.7,-1.6 0,0 -0.7,1 0,2 0.4,0.6 1.2,0.9 1.9,0.5 0.3,-0.2 0.5,-0.6 0.6,-0.9 0.2,-0.7 0.2,-1.4 -0.4,-1.9 -0.9,-0.8 -1.1,-1.9 -0.5,-2.6 0,0 0.2,0.9 1.1,0.8 0.6,0 0.6,-0.2 0.4,-0.4 -0.1,-0.3 -1.4,-2.2 0.5,-3.6 0,0 1.2,-0.8 2.6,-0.7 -0.8,0.1 -1.7,0.6 -2,1.4 v 0.1 c -0.3,0.8 -0.1,1.7 0.5,2.5 0.4,0.6 0.9,1.1 1.1,1.9 -0.3,-0.1 -0.5,0 -0.7,0.2 -0.2,0.2 -0.3,0.6 -0.2,0.9 0.1,0.2 0.3,0.4 0.5,0.4 h 0.3 c 0.3,-0.1 0.5,-0.5 0.4,-0.8 0.2,0.2 0.3,0.7 0.2,1 0,0.3 -0.2,0.6 -0.3,0.8 -0.1,0.2 -0.3,0.4 -0.4,0.6 -0.1,0.2 -0.2,0.4 -0.2,0.6 0,0.2 0,0.5 0.1,0.7 0.4,0.6 1.2,0 1.4,-0.5 0.3,-0.6 0.2,-1.3 -0.2,-1.9 0,0 0.7,0.4 1.2,1.8 0.4,1.2 -0.3,2.6 -1.1,3.1 z"
       fill="#ff6600"
       data-color="1"
       id="path2"
       style="fill:#ffffff" />
  </g>
</svg>
