<?xml version="1.0" encoding="UTF-8" standalone="no"?>
<svg
   data-bbox="0 -0.001 31.697 30.757"
   viewBox="0 0 31.697 30.757"
   height="116.247"
   width="119.8"
   data-type="color"
   version="1.1"
   id="svg20"
   sodipodi:docname="GitHub Octocat.svg"
   inkscape:version="1.1 (c68e22c387, 2021-05-23)"
   xmlns:inkscape="http://www.inkscape.org/namespaces/inkscape"
   xmlns:sodipodi="http://sodipodi.sourceforge.net/DTD/sodipodi-0.dtd"
   xmlns="http://www.w3.org/2000/svg"
   xmlns:svg="http://www.w3.org/2000/svg">
  <defs
     id="defs24" />
  <sodipodi:namedview
     id="namedview22"
     pagecolor="#505050"
     bordercolor="#eeeeee"
     borderopacity="1"
     inkscape:pageshadow="0"
     inkscape:pageopacity="0"
     inkscape:pagecheckerboard="0"
     showgrid="false"
     inkscape:zoom="6.4775864"
     inkscape:cx="59.976043"
     inkscape:cy="58.046312"
     inkscape:window-width="2560"
     inkscape:window-height="1348"
     inkscape:window-x="-12"
     inkscape:window-y="-12"
     inkscape:window-maximized="1"
     inkscape:current-layer="svg20" />
  <g
     id="g18"
     style="fill:#ffffff">
    <path
       d="M15.848 0A15.849 15.657 0 0 0 0 15.656a15.849 15.657 0 0 0 11.7 15.1.408.408 0 0 0 .2-.376c0-.71-.019-3.166-.019-3.166s-3.693.619-4.785-1.146-1.02-1.929-1.02-1.929-.708-1.128-1.582-1.437c-.873-.31-.182-.783-.182-.783s.764-.436 1.383 0c.619.437 1 .747 1 .747s.747.672.983 1.164c.237.491.892.928.892.928s.946.455 1.601.418c.655-.036 1.692-.363 1.692-.363s.182-1.31 1.056-1.984c0 0-4.267-.551-5.425-2.43-1.158-1.878-1.57-3.345-1.57-3.345s-.618-2.393 0-4.014c.618-1.621 1.39-2.316 1.39-2.316s-.412-1.184-.309-2.47c.103-1.287.463-1.776.463-1.776s.927-.258 1.596.025c.669.283 2.522 1.416 2.522 1.416s1.75-.464 4.348-.412c2.6.051 3.732.514 3.732.514s2.007-1.235 2.753-1.337c.746-.103 1.802-.232 1.802-.232s.591 1.235.488 2.084c-.103.85-.437 1.93-.437 1.93s1.75 1.03 1.621 5.018c-.128 3.989-2.573 5.765-2.573 5.765s-1.21 1.003-2.265 1.132c-1.055.128-2.058.205-2.058.205s.579.682.643 1.609c.064.926.064 1.493.064 1.493l.18 4.644s.013.243.19.403a15.849 15.657 0 0 0 11.623-15.079A15.849 15.657 0 0 0 15.848-.001z"
       fill="#171516"
       paint-order="stroke markers fill"
       data-color="1"
       id="path2"
       style="fill:#ffffff" />
    <path
       fill="#171516"
       paint-order="stroke markers fill"
       d="M6.085 22.564c0 .14-.133.254-.296.254-.163 0-.296-.114-.296-.254s.133-.254.296-.254c.163 0 .296.114.296.254z"
       data-color="1"
       id="path4"
       style="fill:#ffffff" />
    <path
       fill="#171516"
       paint-order="stroke markers fill"
       d="M6.735 23.121c0 .178-.111.322-.248.322s-.248-.144-.248-.322c0-.178.111-.322.248-.322s.248.144.248.322z"
       data-color="1"
       id="path6"
       style="fill:#ffffff" />
    <path
       fill="#171516"
       paint-order="stroke markers fill"
       d="M7.442 23.983c0 .156-.12.283-.267.283-.147 0-.267-.127-.267-.283 0-.156.12-.283.267-.283.147 0 .267.127.267.283z"
       data-color="1"
       id="path8"
       style="fill:#ffffff" />
    <path
       fill="#171516"
       paint-order="stroke markers fill"
       d="M8.22 24.915c0 .188-.142.341-.318.341-.176 0-.318-.153-.318-.341 0-.188.142-.341.318-.341.176 0 .318.153.318.341z"
       data-color="1"
       id="path10"
       style="fill:#ffffff" />
    <path
       fill="#171516"
       paint-order="stroke markers fill"
       d="M9.295 25.504c0 .18-.133.325-.296.325-.163 0-.296-.146-.296-.325 0-.18.133-.325.296-.325.163 0 .296.146.296.325z"
       data-color="1"
       id="path12"
       style="fill:#ffffff" />
    <path
       fill="#171516"
       paint-order="stroke markers fill"
       d="M10.64 25.79a.285.285 0 0 1-.293.277.285.285 0 0 1-.293-.277c0-.153.131-.277.293-.277.162 0 .293.124.293.277z"
       data-color="1"
       id="path14"
       style="fill:#ffffff" />
    <path
       fill="#171516"
       paint-order="stroke markers fill"
       d="M11.901 25.61c0 .153-.17.277-.38.277s-.38-.124-.38-.277c0-.153.17-.277.38-.277s.38.124.38.277z"
       data-color="1"
       id="path16"
       style="fill:#ffffff" />
  </g>
</svg>
