<?xml version="1.0" encoding="UTF-8" standalone="no"?>
<svg
   height="20"
   viewBox="0 0 20 20"
   width="20"
   fill="#ffffff"
   version="1.1"
   id="svg6"
   sodipodi:docname="link_white_24dp.svg"
   inkscape:version="1.1 (c68e22c387, 2021-05-23)"
   xmlns:inkscape="http://www.inkscape.org/namespaces/inkscape"
   xmlns:sodipodi="http://sodipodi.sourceforge.net/DTD/sodipodi-0.dtd"
   xmlns="http://www.w3.org/2000/svg"
   xmlns:svg="http://www.w3.org/2000/svg">
  <defs
     id="defs10" />
  <sodipodi:namedview
     id="namedview8"
     pagecolor="#505050"
     bordercolor="#eeeeee"
     borderopacity="1"
     inkscape:pageshadow="0"
     inkscape:pageopacity="0"
     inkscape:pagecheckerboard="0"
     showgrid="false"
     fit-margin-top="0"
     fit-margin-left="0"
     fit-margin-right="0"
     fit-margin-bottom="0"
     inkscape:zoom="31.375"
     inkscape:cx="9.9920319"
     inkscape:cy="4.9721116"
     inkscape:window-width="2560"
     inkscape:window-height="1348"
     inkscape:window-x="-12"
     inkscape:window-y="-12"
     inkscape:window-maximized="1"
     inkscape:current-layer="svg6" />
  <path
     d="M -2,-7 H 22 V 17 H -2 Z"
     fill="none"
     id="path2" />
  <path
     d="m 15,5 h -4 v 2 h 4 c 1.65,0 3,1.35 3,3 0,1.65 -1.35,3 -3,3 h -4 v 2 h 4 c 2.76,0 5,-2.24 5,-5 C 20,7.24 17.76,5 15,5 Z M 9,13 H 5 C 3.35,13 2,11.65 2,10 2,8.35 3.35,7 5,7 H 9 V 5 H 5 c -2.76,0 -5,2.24 -5,5 0,2.76 2.24,5 5,5 H 9 Z M 6,9 h 8 v 2 H 6 Z"
     id="path4" />
</svg>
