<?xml version="1.0" encoding="UTF-8" standalone="no"?>
<!-- Created with Inkscape (http://www.inkscape.org/) -->

<svg
   width="322.461mm"
   height="322.461mm"
   viewBox="0 0 322.461 322.461"
   version="1.1"
   id="svg5"
   inkscape:version="1.1 (c68e22c387, 2021-05-23)"
   sodipodi:docname="PMC logo.svg"
   xmlns:inkscape="http://www.inkscape.org/namespaces/inkscape"
   xmlns:sodipodi="http://sodipodi.sourceforge.net/DTD/sodipodi-0.dtd"
   xmlns="http://www.w3.org/2000/svg"
   xmlns:svg="http://www.w3.org/2000/svg">
  <sodipodi:namedview
     id="namedview7"
     pagecolor="#505050"
     bordercolor="#eeeeee"
     borderopacity="1"
     inkscape:pageshadow="0"
     inkscape:pageopacity="0"
     inkscape:pagecheckerboard="0"
     inkscape:document-units="mm"
     showgrid="false"
     inkscape:zoom="0.47433592"
     inkscape:cx="694.65538"
     inkscape:cy="761.06402"
     inkscape:window-width="2560"
     inkscape:window-height="1348"
     inkscape:window-x="-12"
     inkscape:window-y="-12"
     inkscape:window-maximized="1"
     inkscape:current-layer="layer1" />
  <defs
     id="defs2" />
  <g
     inkscape:label="Layer 1"
     inkscape:groupmode="layer"
     id="layer1">
    <path
       id="rect1378"
       style="fill:#ffffff;stroke:none;stroke-width:11.3386;stroke-linecap:square;stroke-linejoin:round;paint-order:fill markers stroke"
       d="M 406.25 0 L 406.25 101.5625 L 304.6875 101.5625 L 203.125 101.5625 L 203.125 203.125 L 101.5625 203.125 L 101.5625 304.6875 L 101.5625 406.25 L 0 406.25 L 0 507.8125 L 0 609.375 L 0 710.9375 L 0 812.5 L 101.5625 812.5 L 101.5625 710.9375 L 203.125 710.9375 L 203.125 609.375 L 304.6875 609.375 L 406.25 609.375 L 406.25 507.8125 L 406.25 406.25 L 507.8125 406.25 L 507.8125 304.6875 L 507.8125 203.125 L 609.375 203.125 L 609.375 101.5625 L 710.9375 101.5625 L 812.5 101.5625 L 812.5 0 L 710.9375 0 L 609.375 0 L 507.8125 0 L 406.25 0 z M 812.5 101.5625 L 812.5 203.125 L 812.5 304.6875 L 914.0625 304.6875 L 914.0625 406.25 L 1015.625 406.25 L 1015.625 507.8125 L 1015.625 609.375 L 1015.625 710.9375 L 1015.625 812.5 L 1015.625 914.0625 L 1015.625 1015.625 L 1117.1875 1015.625 L 1117.1875 914.0625 L 1117.1875 812.5 L 1218.75 812.5 L 1218.75 710.9375 L 1218.75 609.375 L 1218.75 507.8125 L 1218.75 406.25 L 1117.1875 406.25 L 1117.1875 304.6875 L 1117.1875 203.125 L 1015.625 203.125 L 1015.625 101.5625 L 914.0625 101.5625 L 812.5 101.5625 z M 1015.625 1015.625 L 914.0625 1015.625 L 812.5 1015.625 L 812.5 914.0625 L 710.9375 914.0625 L 710.9375 812.5 L 609.375 812.5 L 507.8125 812.5 L 406.25 812.5 L 304.6875 812.5 L 304.6875 914.0625 L 406.25 914.0625 L 406.25 1015.625 L 507.8125 1015.625 L 507.8125 1117.1875 L 406.25 1117.1875 L 406.25 1218.75 L 507.8125 1218.75 L 609.375 1218.75 L 710.9375 1218.75 L 812.5 1218.75 L 812.5 1117.1875 L 914.0625 1117.1875 L 1015.625 1117.1875 L 1015.625 1015.625 z M 406.25 1117.1875 L 406.25 1015.625 L 304.6875 1015.625 L 203.125 1015.625 L 203.125 1117.1875 L 304.6875 1117.1875 L 406.25 1117.1875 z M 203.125 1015.625 L 203.125 914.0625 L 203.125 812.5 L 101.5625 812.5 L 101.5625 914.0625 L 101.5625 1015.625 L 203.125 1015.625 z "
       transform="scale(0.26458333)" />
  </g>
</svg>
