<?xml version="1.0" encoding="UTF-8" standalone="no"?>
<svg
   height="20"
   viewBox="0 0 20 20"
   width="20"
   fill="#000000"
   version="1.1"
   id="svg6"
   sodipodi:docname="public_black_24dp.svg"
   inkscape:version="1.1 (c68e22c387, 2021-05-23)"
   xmlns:inkscape="http://www.inkscape.org/namespaces/inkscape"
   xmlns:sodipodi="http://sodipodi.sourceforge.net/DTD/sodipodi-0.dtd"
   xmlns="http://www.w3.org/2000/svg"
   xmlns:svg="http://www.w3.org/2000/svg">
  <defs
     id="defs10" />
  <sodipodi:namedview
     id="namedview8"
     pagecolor="#505050"
     bordercolor="#eeeeee"
     borderopacity="1"
     inkscape:pageshadow="0"
     inkscape:pageopacity="0"
     inkscape:pagecheckerboard="0"
     showgrid="false"
     fit-margin-top="0"
     fit-margin-left="0"
     fit-margin-right="0"
     fit-margin-bottom="0"
     inkscape:zoom="31.375"
     inkscape:cx="9.9920319"
     inkscape:cy="9.9760956"
     inkscape:window-width="2560"
     inkscape:window-height="1348"
     inkscape:window-x="-12"
     inkscape:window-y="-12"
     inkscape:window-maximized="1"
     inkscape:current-layer="svg6" />
  <path
     d="M -2,-2 H 22 V 22 H -2 Z"
     fill="none"
     id="path2" />
  <path
     d="M 10,0 C 4.48,0 0,4.48 0,10 0,15.52 4.48,20 10,20 15.52,20 20,15.52 20,10 20,4.48 15.52,0 10,0 Z M 2,10 C 2,9.39 2.08,8.79 2.21,8.22 L 6.99,13 v 1 c 0,1.1 0.9,2 2,2 v 1.93 C 5.06,17.43 2,14.07 2,10 Z m 13.89,5.4 c -0.26,-0.81 -1,-1.4 -1.9,-1.4 h -1 v -3 c 0,-0.55 -0.45,-1 -1,-1 h -6 V 8 h 2 c 0.55,0 1,-0.45 1,-1 V 5 h 2 c 1.1,0 2,-0.9 2,-2 V 2.59 C 15.92,3.77 18,6.65 18,10 c 0,2.08 -0.81,3.98 -2.11,5.4 z"
     id="path4"
     style="fill:#ffffff" />
</svg>
