<?xml version="1.0" encoding="UTF-8" standalone="no"?>
<svg
   width="842"
   height="1e3"
   version="1.1"
   id="svg4"
   sodipodi:docname="AppleInc logo.svg"
   inkscape:version="1.1 (c68e22c387, 2021-05-23)"
   xmlns:inkscape="http://www.inkscape.org/namespaces/inkscape"
   xmlns:sodipodi="http://sodipodi.sourceforge.net/DTD/sodipodi-0.dtd"
   xmlns="http://www.w3.org/2000/svg"
   xmlns:svg="http://www.w3.org/2000/svg"
   xmlns:rdf="http://www.w3.org/1999/02/22-rdf-syntax-ns#"
   xmlns:cc="http://creativecommons.org/ns#"
   xmlns:dc="http://purl.org/dc/elements/1.1/">
  <title
     id="title847">Apple Inc. logo icon</title>
  <defs
     id="defs8" />
  <sodipodi:namedview
     id="namedview6"
     pagecolor="#505050"
     bordercolor="#eeeeee"
     borderopacity="1"
     inkscape:pageshadow="0"
     inkscape:pageopacity="0"
     inkscape:pagecheckerboard="0"
     showgrid="false"
     inkscape:zoom="0.779"
     inkscape:cx="420.41078"
     inkscape:cy="499.35815"
     inkscape:window-width="2560"
     inkscape:window-height="1316"
     inkscape:window-x="-12"
     inkscape:window-y="-12"
     inkscape:window-maximized="1"
     inkscape:current-layer="svg4" />
  <path
     d="M702 960c-54.2 52.6-114 44.4-171 19.6-60.6-25.3-116-26.9-180 0-79.7 34.4-122 24.4-170-19.6-271-279-231-704 77-720 74.7 4 127 41.3 171 44.4 65.4-13.3 128-51.4 198-46.4 84.1 6.8 147 40 189 99.7-173 104-132 332 26.9 396-31.8 83.5-72.6 166-141 227zM423 237C414.9 113 515.4 11 631 1c15.9 143-130 250-208 236z"
     id="path2"
     style="fill:#ffffff" />
  <metadata
     id="metadata843">
    <rdf:RDF>
      <cc:Work
         rdf:about="">
        <dc:title>Apple Inc. logo icon</dc:title>
      </cc:Work>
    </rdf:RDF>
  </metadata>
</svg>
