<?xml version="1.0" encoding="UTF-8" standalone="no"?>
<!-- Created with Inkscape (http://www.inkscape.org/) -->

<svg
   width="123.45148mm"
   height="30.7568mm"
   viewBox="0 0 123.45148 30.7568"
   version="1.1"
   id="svg5"
   inkscape:version="1.1 (c68e22c387, 2021-05-23)"
   sodipodi:docname="full github logo.svg"
   xmlns:inkscape="http://www.inkscape.org/namespaces/inkscape"
   xmlns:sodipodi="http://sodipodi.sourceforge.net/DTD/sodipodi-0.dtd"
   xmlns="http://www.w3.org/2000/svg"
   xmlns:svg="http://www.w3.org/2000/svg">
  <sodipodi:namedview
     id="namedview7"
     pagecolor="#505050"
     bordercolor="#eeeeee"
     borderopacity="1"
     inkscape:pageshadow="0"
     inkscape:pageopacity="0"
     inkscape:pagecheckerboard="0"
     inkscape:document-units="mm"
     showgrid="false"
     fit-margin-top="0"
     fit-margin-left="0"
     fit-margin-right="0"
     fit-margin-bottom="0"
     inkscape:zoom="0.69397447"
     inkscape:cx="-67.005347"
     inkscape:cy="177.23995"
     inkscape:window-width="2560"
     inkscape:window-height="1316"
     inkscape:window-x="-12"
     inkscape:window-y="-12"
     inkscape:window-maximized="1"
     inkscape:current-layer="layer1" />
  <defs
     id="defs2" />
  <g
     inkscape:label="Layer 1"
     inkscape:groupmode="layer"
     id="layer1"
     transform="translate(-122.80314,-101.28656)">
    <g
       id="g31205"
       transform="translate(564.31135,474.84738)"
       style="fill:#ffffff">
      <path
         id="path31189"
         style="fill:#ffffff;fill-opacity:1;stroke:none;stroke-width:29.9998;stroke-linecap:round;stroke-dashoffset:1133.86;paint-order:stroke markers fill"
         d="m -425.65956,-373.5608 a 15.848744,15.656905 0 0 0 -15.84865,15.65693 15.848744,15.656905 0 0 0 11.70057,15.09985 c 0.11797,-0.0716 0.19947,-0.18798 0.19947,-0.37568 0,-0.70964 -0.0186,-3.16622 -0.0186,-3.16622 0,0 -3.69348,0.61884 -4.78523,-1.14617 -1.09175,-1.76504 -1.01907,-1.92857 -1.01907,-1.92857 0,0 -0.70943,-1.12832 -1.58285,-1.43764 -0.87338,-0.30933 -0.18243,-0.78238 -0.18243,-0.78238 0,0 0.76476,-0.43675 1.38341,0 0.61864,0.43667 1.00044,0.74621 1.00044,0.74621 0,0 0.74633,0.67294 0.9829,1.16427 0.23654,0.49128 0.89141,0.9281 0.89141,0.9281 0,0 0.94638,0.45498 1.60144,0.41858 0.65505,-0.0364 1.6919,-0.36381 1.6919,-0.36381 0,0 0.18233,-1.31008 1.05574,-1.98334 0,0 -4.26701,-0.55131 -5.42499,-2.42983 -1.158,-1.87851 -1.56993,-3.34552 -1.56993,-3.34552 0,0 -0.61759,-2.39303 0,-4.01423 0.61759,-1.62118 1.38957,-2.31614 1.38957,-2.31614 0,0 -0.41143,-1.18348 -0.30851,-2.47012 0.10295,-1.28667 0.46302,-1.77562 0.46302,-1.77562 0,0 0.92671,-0.25771 1.59579,0.0253 0.66905,0.28308 2.52179,1.41541 2.52179,1.41544 0,0 1.74953,-0.46334 4.34859,-0.41188 2.59903,0.0515 3.73155,0.5147 3.73155,0.5147 0,0 2.00705,-1.23497 2.75331,-1.33789 0.74628,-0.10293 1.80144,-0.23151 1.80144,-0.23151 0,0 0.59179,1.23491 0.48887,2.08409 -0.10295,0.84921 -0.4377,1.93014 -0.4377,1.93014 0,0 1.75027,1.02915 1.6216,5.01777 -0.12866,3.98862 -2.57349,5.7645 -2.57349,5.7645 0,0 -1.20939,1.00357 -2.26447,1.13223 -1.05505,0.12867 -2.05877,0.20566 -2.05877,0.20566 0,0 0.57904,0.68181 0.64336,1.60819 0.0643,0.92639 0.0641,1.49294 0.0641,1.49294 l 0.18037,4.64466 c 0,0 0.0126,0.24291 0.18965,0.40309 a 15.848744,15.656905 0 0 0 11.62304,-15.07919 15.848744,15.656905 0 0 0 -15.84862,-15.65693 z" />
      <ellipse
         style="fill:#ffffff;fill-opacity:1;stroke:none;stroke-width:30;stroke-linecap:round;stroke-dashoffset:1133.86;paint-order:stroke markers fill"
         id="ellipse31191"
         cx="-435.71893"
         cy="-350.99594"
         rx="0.29593039"
         ry="0.25411415" />
      <ellipse
         style="fill:#ffffff;fill-opacity:1;stroke:none;stroke-width:30;stroke-linecap:round;stroke-dashoffset:1133.86;paint-order:stroke markers fill"
         id="ellipse31193"
         cx="-435.0209"
         cy="-350.43945"
         rx="0.24768087"
         ry="0.32166347" />
      <ellipse
         style="fill:#ffffff;fill-opacity:1;stroke:none;stroke-width:30;stroke-linecap:round;stroke-dashoffset:1133.86;paint-order:stroke markers fill"
         id="ellipse31195"
         cx="-434.33255"
         cy="-349.57739"
         rx="0.26698068"
         ry="0.28306383" />
      <ellipse
         style="fill:#ffffff;fill-opacity:1;stroke:none;stroke-width:30;stroke-linecap:round;stroke-dashoffset:1133.86;paint-order:stroke markers fill"
         id="ellipse31197"
         cx="-433.60559"
         cy="-348.64459"
         rx="0.31844684"
         ry="0.34096327" />
      <ellipse
         style="fill:#ffffff;fill-opacity:1;stroke:none;stroke-width:30;stroke-linecap:round;stroke-dashoffset:1133.86;paint-order:stroke markers fill"
         id="ellipse31199"
         cx="-432.50873"
         cy="-348.05594"
         rx="0.29593039"
         ry="0.32488012" />
      <ellipse
         style="fill:#ffffff;fill-opacity:1;stroke:none;stroke-width:30;stroke-linecap:round;stroke-dashoffset:1133.86;paint-order:stroke markers fill"
         id="ellipse31201"
         cx="-431.16092"
         cy="-347.76965"
         rx="0.29271373"
         ry="0.27663058" />
      <ellipse
         style="fill:#ffffff;fill-opacity:1;stroke:none;stroke-width:30;stroke-linecap:round;stroke-dashoffset:1133.86;paint-order:stroke markers fill"
         id="ellipse31203"
         cx="-429.98688"
         cy="-347.9498"
         rx="0.37956288"
         ry="0.27663058" />
    </g>
    <path
       style="fill:#ffffff;stroke:none;stroke-width:0.264583px;stroke-linecap:butt;stroke-linejoin:miter;stroke-opacity:1"
       d="m 176.46563,111.31105 1.06445,-3.92509 c 0,0 -1.5634,-1.19748 -6.05396,-1.23074 -4.49056,-0.0333 -6.51965,2.09558 -6.51965,2.09558 0,0 -3.3596,2.26192 -3.22654,9.64642 0.13306,7.38449 3.55917,9.24724 3.55917,9.24724 0,0 2.59456,1.72968 6.1205,1.66317 3.52592,-0.0665 4.98951,-0.69853 4.98951,-0.69853 l 1.92927,-0.89813 0.0333,-11.20978 h -7.81693 v 3.92509 h 3.16003 v 4.39079 c 0,0 -1.33054,0.23283 -2.42822,0.13306 -1.0977,-0.0998 -1.43033,-0.13306 -1.43033,-0.13306 0,0 -3.19329,-0.43244 -3.3596,-6.18702 -0.16632,-5.75458 2.39495,-6.61943 2.39495,-6.61943 0,0 1.43034,-0.86484 3.49266,-0.86484 2.06235,0 4.09141,0.66527 4.09141,0.66527 z"
       id="path31207" />
    <path
       style="fill:#ffffff;stroke:none;stroke-width:0.264583px;stroke-linecap:butt;stroke-linejoin:miter;stroke-opacity:1"
       d="m 180.62356,113.87235 h 4.59036 v 14.70244 h -4.59036 z"
       id="path31209" />
    <ellipse
       style="fill:#ffffff;stroke:none;stroke-width:1;stroke-linecap:square;stroke-miterlimit:4;stroke-dasharray:none;paint-order:stroke markers fill"
       id="ellipse31211"
       cx="182.93538"
       cy="110.08031"
       rx="2.6111813"
       ry="2.5612862" />
    <path
       style="fill:#ffffff;stroke:none;stroke-width:0.264583px;stroke-linecap:butt;stroke-linejoin:miter;stroke-opacity:1"
       d="m 189.03921,109.7144 h 4.72342 v 4.09141 h 3.29309 v 3.95835 h -3.29309 v 5.98741 c 0,0 -0.16631,1.23076 1.4636,1.23076 1.62991,0 1.62991,0 1.62991,0 l 0.0665,3.25983 c 0,0 -1.49686,0.59873 -2.82739,0.63198 -1.33054,0.0333 -2.82739,-0.56546 -2.82739,-0.56546 0,0 -2.02907,-1.43034 -2.06235,-3.22657 -0.0333,-1.7962 -0.0665,-7.38447 -0.0665,-7.38447 h -2.49475 v -3.12676 l 2.46149,-0.63202 z"
       id="path31213" />
    <path
       style="fill:#ffffff;stroke:none;stroke-width:0.264583px;stroke-linecap:butt;stroke-linejoin:miter;stroke-opacity:1"
       d="m 198.98501,107.05332 h 4.65687 v 7.91671 h 6.25354 v -7.98322 h 4.75668 v 21.52144 h -4.69017 v -9.2805 h -6.3533 v 9.14744 h -4.62362 z"
       id="path31215" />
    <path
       style="fill:#ffffff;stroke:none;stroke-width:0.264583px;stroke-linecap:butt;stroke-linejoin:miter;stroke-opacity:1"
       d="m 216.41504,113.87235 h 4.72342 v 10.01228 c 0,0 -0.0665,1.13096 1.82949,1.16422 1.896,0.0333 2.49476,-0.69853 2.49476,-0.69853 v -10.47797 h 4.59036 v 14.56939 h -3.19328 v -1.03117 c 0,0 -1.79623,1.3638 -5.05606,1.49686 -3.25983,0.13303 -4.42404,-1.79623 -4.42404,-1.79623 0,0 -0.73179,-0.93139 -0.79833,-2.32844 -0.0665,-1.39708 -0.16632,-10.91041 -0.16632,-10.91041 z"
       id="path31217" />
    <path
       id="path31219"
       style="fill:#ffffff;stroke:none;stroke-width:0.264583px;stroke-linecap:butt;stroke-linejoin:miter;stroke-opacity:1"
       d="m 232.04869,107.01993 0.23307,21.38836 3.25975,-0.0331 0.23307,-0.9648 c 0,0 0.86463,1.46378 4.45709,1.49706 3.59243,0.0333 4.59041,-2.02933 4.59041,-2.02933 0,0 1.49691,-1.82911 1.43039,-6.0203 -0.0665,-4.19121 -1.92958,-6.12055 -1.92958,-6.12055 0,0 -1.164,-1.36403 -3.55896,-1.39732 -2.39498,-0.0333 -4.02508,1.03145 -4.02508,1.03145 v -7.3515 z m 7.08485,10.10947 c 1.01846,0.004 1.82986,1.03404 1.82986,1.03404 0,0 0.53226,0.83172 0.53226,2.96056 0,2.12886 -0.46561,3.02667 -0.46561,3.02667 0,0 -0.59886,0.89831 -1.96265,0.9648 -1.36383,0.0665 -2.3947,-0.69865 -2.3947,-0.69865 v -6.61924 c 0,0 1.2972,-0.5991 2.36162,-0.66559 0.0333,-0.002 0.0664,-0.003 0.0992,-0.003 z" />
  </g>
</svg>
