<?xml version="1.0" encoding="UTF-8" standalone="no"?>
<!-- Created with Inkscape (http://www.inkscape.org/) -->

<svg
   width="110mm"
   height="30mm"
   viewBox="0 0 110 30"
   version="1.1"
   id="svg5"
   sodipodi:docname="cc by nd.svg"
   inkscape:version="1.1 (c68e22c387, 2021-05-23)"
   xmlns:inkscape="http://www.inkscape.org/namespaces/inkscape"
   xmlns:sodipodi="http://sodipodi.sourceforge.net/DTD/sodipodi-0.dtd"
   xmlns="http://www.w3.org/2000/svg"
   xmlns:svg="http://www.w3.org/2000/svg">
  <sodipodi:namedview
     id="namedview7"
     pagecolor="#505050"
     bordercolor="#eeeeee"
     borderopacity="1"
     inkscape:pageshadow="0"
     inkscape:pageopacity="0"
     inkscape:pagecheckerboard="0"
     inkscape:document-units="mm"
     showgrid="true"
     inkscape:zoom="2.6832492"
     inkscape:cx="173.11102"
     inkscape:cy="63.356025"
     inkscape:window-width="2560"
     inkscape:window-height="1348"
     inkscape:window-x="-12"
     inkscape:window-y="-12"
     inkscape:window-maximized="1"
     inkscape:current-layer="layer1"
     fit-margin-top="0"
     fit-margin-left="0"
     fit-margin-right="0"
     fit-margin-bottom="0">
    <inkscape:grid
       type="xygrid"
       id="grid824"
       units="mm"
       spacingx="10"
       spacingy="10"
       empspacing="1"
       dotted="false"
       originx="4.1470002e-08"
       originy="6.9640313e-08" />
  </sodipodi:namedview>
  <defs
     id="defs2" />
  <g
     inkscape:label="Layer 1"
     inkscape:groupmode="layer"
     id="layer1">
    <g
       id="g917"
       transform="matrix(0.26458333,0,0,0.26458333,-9.9062645,0.92604166)"
       style="fill:#ffffff">
	
	<path
   d="m 94.03027,-3.4999998 c 15.85832,0 29.36031,5.5365027 40.49532,16.6041958 5.32921,5.33099 9.38105,11.423802 12.14842,18.27312 2.76559,6.851093 4.15282,14.122072 4.15282,21.816484 0,7.761736 -1.36952,15.034488 -4.09968,21.814712 -2.7337,6.781999 -6.76782,12.773821 -12.09704,17.970163 -5.53296,5.465637 -11.81002,9.652115 -18.8312,12.554135 -7.01763,2.90201 -14.27443,4.35302 -21.765093,4.35302 -7.49067,0 -14.662434,-1.43152 -21.513527,-4.30341 C 65.670973,102.71583 59.528551,98.564788 54.094805,93.132812 48.661059,87.700837 44.527727,81.574362 41.693037,74.756936 38.858348,67.939504 37.441,60.753565 37.441,53.1938 c 0,-7.49244 1.43329,-14.696095 4.301642,-21.614511 2.868357,-6.918414 7.037122,-13.110441 12.502759,-18.57785 C 65.043798,2.002841 78.304827,-3.4999998 94.03027,-3.4999998 Z m 0.205524,10.2261452 c -12.958077,0 -23.859231,4.5230976 -32.701695,13.5657636 -4.455779,4.523098 -7.880435,9.600739 -10.275749,15.236458 -2.398856,5.635718 -3.594742,11.524786 -3.594742,17.667205 0,6.075096 1.195886,11.930503 3.594742,17.562677 2.397085,5.639261 5.81997,10.667294 10.275749,15.087641 4.454009,4.422112 9.48027,7.793627 15.085867,10.125159 5.600284,2.327985 11.473406,3.49198 17.615828,3.49198 6.073326,0 11.958836,-1.178167 17.668976,-3.54159 5.70304,-2.365194 10.84445,-5.770365 15.43666,-10.224374 8.84068,-8.638718 13.25926,-19.470777 13.25926,-32.499721 0,-6.277067 -1.14805,-12.215743 -3.44238,-17.817799 -2.29078,-5.602057 -5.63394,-10.594653 -10.01709,-14.984879 -9.11707,-9.111761 -20.082,-13.6685206 -32.905426,-13.6685206 z m -0.710442,37.0547126 -7.595203,3.949078 c -0.811433,-1.684869 -1.805342,-2.868353 -2.98528,-3.543363 -1.181714,-0.673239 -2.278385,-1.01163 -3.291784,-1.01163 -5.059923,0 -7.593426,3.339619 -7.593426,10.022401 0,3.036662 0.641347,5.463865 1.922271,7.286926 1.282699,1.823059 3.173085,2.735476 5.671155,2.735476 3.307727,0 5.635712,-1.621089 6.987506,-4.859722 l 6.983965,3.543362 c -1.484666,2.769138 -3.543361,4.944762 -6.176079,6.530417 -2.629171,1.587427 -5.532955,2.379368 -8.706034,2.379368 -5.061694,0 -9.147193,-1.550221 -12.251178,-4.657749 -3.103984,-3.103987 -4.65598,-7.423346 -4.65598,-12.956306 0,-5.400085 1.569709,-9.684011 4.707356,-12.857092 3.137652,-3.171309 7.102669,-4.758736 11.896839,-4.758736 7.021168,-0.0035 12.047435,2.730161 15.085872,8.19757 z m 32.699908,0 -7.49244,3.949078 c -0.80965,-1.684869 -1.80711,-2.868353 -2.98705,-3.543363 -1.18349,-0.673239 -2.31559,-1.01163 -3.391,-1.01163 -5.06169,0 -7.59519,3.339619 -7.59519,10.022401 0,3.036662 0.64312,5.463865 1.92404,7.286926 1.28092,1.823059 3.16954,2.735476 5.67115,2.735476 3.30419,0 5.63395,-1.621089 6.9822,-4.859722 l 7.08672,3.543362 c -1.55021,2.769138 -3.64435,4.944762 -6.27352,6.530417 -2.63272,1.587427 -5.50107,2.379368 -8.60505,2.379368 -5.1308,0 -9.22869,-1.550221 -12.297248,-4.657749 -3.075641,-3.103987 -4.609912,-7.423346 -4.609912,-12.956306 0,-5.400085 1.567938,-9.684011 4.709132,-12.857092 3.135878,-3.171309 7.100898,-4.758736 11.893288,-4.758736 7.01941,-0.0035 12.01732,2.730161 14.98488,8.19757 z"
   id="path915"
   style="stroke-width:0.999999;fill:#ffffff" />

</g>
    <g
       id="g946"
       transform="matrix(0.26458333,0,0,0.26458333,65.215575,25.097821)"
       style="fill:#ffffff">
	
	<g
   id="g944"
   transform="matrix(1.7716536,0,0,1.7716536,-105.04705,-88.65712)"
   style="stroke-width:0.564444;fill:#ffffff">
		<path
   d="m 37.443,-3.5 c 8.988,0 16.57,3.085 22.742,9.257 6.208,6.21 9.315,13.791 9.315,22.743 0,8.991 -3.049,16.476 -9.145,22.456 C 53.879,57.319 46.242,60.5 37.443,60.5 28.794,60.5 21.29,57.356 14.929,51.07 8.644,44.784 5.5,37.262 5.5,28.5 5.5,19.739 8.644,12.158 14.929,5.758 21.101,-0.415 28.604,-3.5 37.443,-3.5 Z m 0.114,5.772 c -7.276,0 -13.428,2.553 -18.457,7.657 -5.22,5.334 -7.829,11.525 -7.829,18.572 0,7.086 2.59,13.22 7.77,18.398 5.181,5.182 11.352,7.771 18.514,7.771 7.123,0 13.334,-2.607 18.629,-7.828 5.029,-4.838 7.543,-10.952 7.543,-18.343 0,-7.276 -2.553,-13.465 -7.656,-18.571 C 50.967,4.824 44.795,2.272 37.557,2.272 Z m 8.572,18.285 V 33.642 H 42.473 V 49.184 H 32.529 V 33.643 H 28.873 V 20.557 c 0,-0.572 0.2,-1.057 0.599,-1.457 0.401,-0.399 0.887,-0.6 1.457,-0.6 h 13.144 c 0.533,0 1.01,0.2 1.428,0.6 0.417,0.4 0.628,0.886 0.628,1.457 z M 33.042,12.329 c 0,-3.008 1.485,-4.514 4.458,-4.514 2.973,0 4.457,1.504 4.457,4.514 0,2.971 -1.486,4.457 -4.457,4.457 -2.971,0 -4.458,-1.486 -4.458,-4.457 z"
   id="path942"
   style="stroke-width:0.564444;fill:#ffffff" />

	</g>

</g>
    <g
       id="g976"
       transform="matrix(0.46874284,0,0,0.46875,80,0)"
       style="stroke-width:0.564449;fill:#ffffff">
	
	<g
   id="g974"
   style="stroke-width:0.564449;fill:#ffffff">
		<path
   d="M 31.943848,0 C 40.896484,0 48.476562,3.105469 54.6875,9.314453 60.894531,15.486328 64.000977,23.045898 64.000977,32 c 0,8.954102 -3.048828,16.457031 -9.145508,22.513672 C 48.417969,60.837891 40.779297,64 31.942871,64 23.293945,64 15.790039,60.857422 9.429199,54.570312 3.144043,48.286133 0,40.761719 0,32.000977 0,23.277344 3.144043,15.715821 9.429199,9.316407 15.640137,3.105469 23.14502,0 31.943848,0 Z m 0.116699,5.771484 c -7.275391,0 -13.429688,2.570312 -18.458496,7.714844 C 8.381836,18.783203 5.772949,24.954102 5.772949,32 c 0,7.125 2.589844,13.256836 7.77002,18.400391 5.181152,5.181641 11.352051,7.770508 18.515625,7.770508 7.123047,0 13.332031,-2.608398 18.626953,-7.828125 C 55.713867,45.466797 58.228516,39.353516 58.228516,32 c 0,-7.3125 -2.553711,-13.484375 -7.65625,-18.513672 C 45.504883,8.341797 39.333984,5.771484 32.060547,5.771484 Z m 12.056641,18.684571 v 5.485352 H 20.859863 v -5.485352 z m 0,10.287109 v 5.481445 H 20.859863 v -5.481445 z"
   id="path972"
   style="stroke-width:0.564449;fill:#ffffff" />

	</g>

</g>
  </g>
</svg>
